<svg width="32" height="26" viewBox="0 0 32 26" fill="none" xmlns="http://www.w3.org/2000/svg">
<g filter="url(#filter0_di_668_544)">
<path d="M3.2002 3.20001H5.94305V5.94287H3.2002V3.20001ZM5.94305 3.20001H8.68591V5.94287H5.94305V3.20001ZM8.68591 3.20001H11.4288V5.94287H8.68591V3.20001ZM11.4288 3.20001H14.1716V5.94287H11.4288V3.20001ZM14.1716 3.20001H16.9145V5.94287H14.1716V3.20001ZM16.9145 3.20001H19.6573V5.94287H16.9145V3.20001ZM3.2002 5.94287H5.94305V8.68573H3.2002V5.94287ZM16.9145 5.94287H19.6573V8.68573H16.9145V5.94287ZM3.2002 8.68573H5.94305V11.4286H3.2002V8.68573ZM16.9145 8.68573H19.6573V11.4286H16.9145V8.68573ZM19.6573 8.68573H22.4002V11.4286H19.6573V8.68573ZM22.4002 8.68573H25.1431V11.4286H22.4002V8.68573ZM25.1431 8.68573H27.8859V11.4286H25.1431V8.68573ZM3.2002 11.4286H5.94305V14.1714H3.2002V11.4286ZM25.1431 11.4286H27.8859V14.1714H25.1431V11.4286ZM3.2002 14.1714H5.94305V16.9143H3.2002V14.1714ZM25.1431 14.1714H27.8859V16.9143H25.1431V14.1714ZM3.2002 16.9143H5.94305L5.94305 19.6572H3.2002V16.9143ZM25.1431 16.9143H27.8859V19.6572H25.1431L25.1431 16.9143ZM3.2002 19.6572H5.94305L5.94305 22.4H3.2002V19.6572ZM5.94305 19.6572H8.68591L8.68591 22.4H5.94305L5.94305 19.6572ZM8.68591 19.6572H11.4288L11.4288 22.4H8.68591L8.68591 19.6572ZM11.4288 19.6572H14.1716L14.1716 22.4H11.4288L11.4288 19.6572ZM14.1716 19.6572H16.9145L16.9145 22.4H14.1716L14.1716 19.6572ZM16.9145 19.6572H19.6573L19.6573 22.4H16.9145L16.9145 19.6572ZM19.6573 19.6572H22.4002V22.4H19.6573L19.6573 19.6572ZM22.4002 19.6572H25.1431L25.1431 22.4H22.4002V19.6572ZM25.1431 19.6572H27.8859V22.4H25.1431L25.1431 19.6572Z" fill="#2B2B2B"/>
</g>
<defs>
<filter id="filter0_di_668_544" x="0.000195265" y="1.21593e-05" width="31.0855" height="25.6" filterUnits="userSpaceOnUse" color-interpolation-filters="sRGB">
<feFlood flood-opacity="0" result="BackgroundImageFix"/>
<feColorMatrix in="SourceAlpha" type="matrix" values="0 0 0 0 0 0 0 0 0 0 0 0 0 0 0 0 0 0 127 0" result="hardAlpha"/>
<feOffset/>
<feGaussianBlur stdDeviation="1.6"/>
<feComposite in2="hardAlpha" operator="out"/>
<feColorMatrix type="matrix" values="0 0 0 0 1 0 0 0 0 1 0 0 0 0 1 0 0 0 0.5 0"/>
<feBlend mode="normal" in2="BackgroundImageFix" result="effect1_dropShadow_668_544"/>
<feBlend mode="normal" in="SourceGraphic" in2="effect1_dropShadow_668_544" result="shape"/>
<feColorMatrix in="SourceAlpha" type="matrix" values="0 0 0 0 0 0 0 0 0 0 0 0 0 0 0 0 0 0 127 0" result="hardAlpha"/>
<feOffset dy="0.8"/>
<feGaussianBlur stdDeviation="0.4"/>
<feComposite in2="hardAlpha" operator="arithmetic" k2="-1" k3="1"/>
<feColorMatrix type="matrix" values="0 0 0 0 1 0 0 0 0 1 0 0 0 0 1 0 0 0 1 0"/>
<feBlend mode="normal" in2="shape" result="effect2_innerShadow_668_544"/>
</filter>
</defs>
</svg>
